<svg width="22" height="26" viewBox="0 0 22 26" fill="none" xmlns="http://www.w3.org/2000/svg">
<path d="M2.34426 7.65278C2.34426 8.29264 1.81948 8.81134 1.17213 8.81134C0.524781 8.81134 0 8.29264 0 7.65278C0 7.01292 0.524781 6.49421 1.17213 6.49421C1.81948 6.49421 2.34426 7.01292 2.34426 7.65278Z" fill="white"/>
<path d="M12.2623 2.12731C12.2623 2.76717 11.7375 3.28588 11.0902 3.28588C10.4428 3.28588 9.91803 2.76717 9.91803 2.12731C9.91803 1.48746 10.4428 0.96875 11.0902 0.96875C11.7375 0.96875 12.2623 1.48746 12.2623 2.12731Z" fill="white"/>
<path d="M12.2623 13C12.2623 13.6399 11.7375 14.1586 11.0902 14.1586C10.4428 14.1586 9.91803 13.6399 9.91803 13C9.91803 12.3601 10.4428 11.8414 11.0902 11.8414C11.7375 11.8414 12.2623 12.3601 12.2623 13Z" fill="white"/>
<path d="M12.2623 23.8727C12.2623 24.5125 11.7375 25.0312 11.0902 25.0312C10.4428 25.0312 9.91803 24.5125 9.91803 23.8727C9.91803 23.2328 10.4428 22.7141 11.0902 22.7141C11.7375 22.7141 12.2623 23.2328 12.2623 23.8727Z" fill="white"/>
<path d="M2.34426 18.5255C2.34426 19.1653 1.81948 19.684 1.17213 19.684C0.524781 19.684 0 19.1653 0 18.5255C0 17.8856 0.524781 17.3669 1.17213 17.3669C1.81948 17.3669 2.34426 17.8856 2.34426 18.5255Z" fill="white"/>
<path d="M22 18.5255C22 19.1653 21.4752 19.684 20.8279 19.684C20.1805 19.684 19.6557 19.1653 19.6557 18.5255C19.6557 17.8856 20.1805 17.3669 20.8279 17.3669C21.4752 17.3669 22 17.8856 22 18.5255Z" fill="white"/>
<path d="M22 7.65278C22 8.29264 21.4752 8.81134 20.8279 8.81134C20.1805 8.81134 19.6557 8.29264 19.6557 7.65278C19.6557 7.01292 20.1805 6.49421 20.8279 6.49421C21.4752 6.49421 22 7.01292 22 7.65278Z" fill="white"/>
<path d="M16.7705 4.89005C16.7705 5.38224 16.3668 5.78125 15.8689 5.78125C15.3709 5.78125 14.9672 5.38224 14.9672 4.89005C14.9672 4.39785 15.3709 3.99884 15.8689 3.99884C16.3668 3.99884 16.7705 4.39785 16.7705 4.89005Z" fill="white"/>
<path d="M21.6393 13.0891C21.6393 13.5813 21.2357 13.9803 20.7377 13.9803C20.2397 13.9803 19.8361 13.5813 19.8361 13.0891C19.8361 12.5969 20.2397 12.1979 20.7377 12.1979C21.2357 12.1979 21.6393 12.5969 21.6393 13.0891Z" fill="white"/>
<path d="M16.7705 21.2882C16.7705 21.7804 16.3668 22.1794 15.8689 22.1794C15.3709 22.1794 14.9672 21.7804 14.9672 21.2882C14.9672 20.796 15.3709 20.397 15.8689 20.397C16.3668 20.397 16.7705 20.796 16.7705 21.2882Z" fill="white"/>
<path d="M7.03279 21.2882C7.03279 21.7804 6.62911 22.1794 6.13115 22.1794C5.63319 22.1794 5.22951 21.7804 5.22951 21.2882C5.22951 20.796 5.63319 20.397 6.13115 20.397C6.62911 20.397 7.03279 20.796 7.03279 21.2882Z" fill="white"/>
<path d="M2.16393 13.0891C2.16393 13.5813 1.76026 13.9803 1.2623 13.9803C0.764333 13.9803 0.360656 13.5813 0.360656 13.0891C0.360656 12.5969 0.764333 12.1979 1.2623 12.1979C1.76026 12.1979 2.16393 12.5969 2.16393 13.0891Z" fill="white"/>
<path d="M7.03279 10.2373C7.03279 10.7295 6.62911 11.1285 6.13115 11.1285C5.63319 11.1285 5.22951 10.7295 5.22951 10.2373C5.22951 9.74507 5.63319 9.34607 6.13115 9.34607C6.62911 9.34607 7.03279 9.74507 7.03279 10.2373Z" fill="white"/>
<path d="M11.9016 18.4363C11.9016 18.9285 11.498 19.3275 11 19.3275C10.502 19.3275 10.0984 18.9285 10.0984 18.4363C10.0984 17.9441 10.502 17.5451 11 17.5451C11.498 17.5451 11.9016 17.9441 11.9016 18.4363Z" fill="white"/>
<path d="M16.7705 10.2373C16.7705 10.7295 16.3668 11.1285 15.8689 11.1285C15.3709 11.1285 14.9672 10.7295 14.9672 10.2373C14.9672 9.74507 15.3709 9.34607 15.8689 9.34607C16.3668 9.34607 16.7705 9.74507 16.7705 10.2373Z" fill="white"/>
<path d="M7.03279 4.89005C7.03279 5.38224 6.62911 5.78125 6.13115 5.78125C5.63319 5.78125 5.22951 5.38224 5.22951 4.89005C5.22951 4.39785 5.63319 3.99884 6.13115 3.99884C6.62911 3.99884 7.03279 4.39785 7.03279 4.89005Z" fill="white"/>
<path d="M11.7213 7.56366C11.7213 7.95742 11.3984 8.27662 11 8.27662C10.6016 8.27662 10.2787 7.95742 10.2787 7.56366C10.2787 7.1699 10.6016 6.85069 11 6.85069C11.3984 6.85069 11.7213 7.1699 11.7213 7.56366Z" fill="white"/>
<path d="M6.85246 15.7627C6.85246 16.1565 6.52952 16.4757 6.13115 16.4757C5.73278 16.4757 5.40984 16.1565 5.40984 15.7627C5.40984 15.369 5.73278 15.0498 6.13115 15.0498C6.52952 15.0498 6.85246 15.369 6.85246 15.7627Z" fill="white"/>
<path d="M16.5902 15.7627C16.5902 16.1565 16.2672 16.4757 15.8689 16.4757C15.4705 16.4757 15.1475 16.1565 15.1475 15.7627C15.1475 15.369 15.4705 15.0498 15.8689 15.0498C16.2672 15.0498 16.5902 15.369 16.5902 15.7627Z" fill="white"/>
</svg>
