<svg width="24" height="24" viewBox="0 0 24 24" fill="none" xmlns="http://www.w3.org/2000/svg">
<path d="M0.980592 7.79969C0.355465 7.79969 0 7.43178 0 6.79407V3.78947C0 1.26316 1.28703 0 3.84883 0H6.83963C7.48927 0 7.84474 0.343383 7.84474 0.981093C7.84474 1.6188 7.48927 1.97445 6.83963 1.97445H3.87334C2.6476 1.97445 1.97344 2.62442 1.97344 3.89985V6.79407C1.97344 7.43178 1.63023 7.79969 0.980592 7.79969ZM23.0072 7.79969C22.382 7.79969 22.0266 7.43178 22.0266 6.79407V3.89985C22.0266 2.62442 21.3279 1.97445 20.1144 1.97445H17.1481C16.5107 1.97445 16.1553 1.6188 16.1553 0.981093C16.1553 0.343383 16.5107 0 17.1481 0H20.1512C22.713 0 24 1.26316 24 3.78947V6.79407C24 7.43178 23.6568 7.79969 23.0072 7.79969ZM6.5332 17.537C5.23391 17.537 4.58427 16.8993 4.58427 15.6239V9.1487C4.58427 7.84875 5.23391 7.21104 6.5332 7.21104H8.07763C8.55567 7.21104 8.70276 7.11293 8.98468 6.80634L9.48723 6.25447C9.79367 5.91109 10.1124 5.7394 10.7497 5.7394H13.2257C13.8509 5.7394 14.1696 5.91109 14.476 6.25447L14.9785 6.80634C15.2605 7.12519 15.4076 7.21104 15.8856 7.21104H17.4791C18.7661 7.21104 19.428 7.84875 19.428 9.1487V15.6239C19.428 16.8993 18.7661 17.537 17.4791 17.537H6.5332ZM12.0245 16.0041C14.047 16.0041 15.6772 14.4098 15.6772 12.3127C15.6772 10.277 14.047 8.64589 12.0245 8.64589C9.97753 8.64589 8.33504 10.277 8.33504 12.3127C8.33504 14.373 9.97753 16.0041 12.0245 16.0041ZM16.903 10.559C17.3565 10.559 17.7365 10.1911 17.7365 9.72509C17.7365 9.25907 17.3565 8.89116 16.903 8.89116C16.4494 8.89116 16.0817 9.25907 16.0817 9.72509C16.0817 10.1911 16.4494 10.559 16.903 10.559ZM12.0123 14.9371C10.5659 14.9371 9.38917 13.7844 9.38917 12.3127C9.38917 10.8656 10.5659 9.70056 12.0123 9.70056C13.4464 9.70056 14.6231 10.8656 14.6231 12.3127C14.6231 13.7844 13.4464 14.9371 12.0123 14.9371ZM3.84883 24C1.28703 24 0 22.7368 0 20.1983V17.2059C0 16.556 0.343207 16.2003 0.980592 16.2003C1.61798 16.2003 1.97344 16.556 1.97344 17.2059V20.1002C1.97344 21.3756 2.6476 22.0255 3.87334 22.0255H6.83963C7.48927 22.0255 7.84474 22.3812 7.84474 23.0189C7.84474 23.6444 7.48927 24 6.83963 24H3.84883ZM17.1481 24C16.5107 24 16.1553 23.6444 16.1553 23.0189C16.1553 22.3812 16.5107 22.0255 17.1481 22.0255H20.1144C21.3279 22.0255 22.0266 21.3756 22.0266 20.1002V17.2059C22.0266 16.556 22.3698 16.2003 23.0072 16.2003C23.6445 16.2003 24 16.556 24 17.2059V20.1983C24 22.7246 22.713 24 20.1512 24H17.1481Z" fill="#F3F3F3"/>
</svg>
