<svg width="24" height="24" viewBox="0 0 24 24" fill="none" xmlns="http://www.w3.org/2000/svg">
<path d="M5.53865 24C3.17575 24 2 22.8358 2 20.4963V3.51493C2 1.18657 3.18716 0 5.53865 0H10.9608C12.2392 0 12.9584 0.190299 13.8259 1.06344L20.1156 7.34327C21.0288 8.2612 21.2 8.8881 21.2 10.3321V20.4963C21.2 22.8247 20.0243 24 17.6613 24H5.53865ZM5.61856 22.1978H17.5701C18.7572 22.1978 19.3622 21.5821 19.3622 20.4627V10.4105H12.8557C11.4288 10.4105 10.7096 9.71645 10.7096 8.30596V1.80224H5.62997C4.44281 1.80224 3.83781 2.4403 3.83781 3.54851V20.4627C3.83781 21.5821 4.44281 22.1978 5.61856 22.1978ZM13.0611 8.72017H19.0083L12.4333 2.14926V8.09327C12.4333 8.54106 12.6045 8.72017 13.0611 8.72017ZM15.8008 13.5C16.2002 13.5 16.4971 13.8023 16.4971 14.1828C16.4971 14.5746 16.2002 14.8769 15.8008 14.8769H7.13675C6.72581 14.8769 6.4176 14.5746 6.4176 14.1828C6.4176 13.8023 6.72581 13.5 7.13675 13.5H15.8008ZM15.8008 17.4067C16.2002 17.4067 16.4971 17.7202 16.4971 18.112C16.4971 18.4926 16.2002 18.7836 15.8008 18.7836H7.13675C6.72581 18.7836 6.4176 18.4926 6.4176 18.112C6.4176 17.7202 6.72581 17.4067 7.13675 17.4067H15.8008Z" fill="#F3F3F3"/>
</svg>
