<svg width="24" height="24" viewBox="0 0 24 24" fill="none" xmlns="http://www.w3.org/2000/svg">
<path d="M10.7778 20.91V12.69L3.44444 8.52V16.74L10.7778 20.91ZM13.2222 20.91L20.5556 16.74V8.52L13.2222 12.69V20.91ZM12 10.62L19.2417 6.51L12 2.4L4.75833 6.51L12 10.62ZM2.22222 18.84C1.83519 18.62 1.53472 18.33 1.32083 17.97C1.10694 17.61 1 17.21 1 16.77V7.23C1 6.79 1.10694 6.39 1.32083 6.03C1.53472 5.67 1.83519 5.38 2.22222 5.16L10.7778 0.33C11.1648 0.11 11.5722 0 12 0C12.4278 0 12.8352 0.11 13.2222 0.33L21.7778 5.16C22.1648 5.38 22.4653 5.67 22.6792 6.03C22.8931 6.39 23 6.79 23 7.23V16.77C23 17.21 22.8931 17.61 22.6792 17.97C22.4653 18.33 22.1648 18.62 21.7778 18.84L13.2222 23.67C12.8352 23.89 12.4278 24 12 24C11.5722 24 11.1648 23.89 10.7778 23.67L2.22222 18.84Z" fill="#F3F3F3"/>
</svg>
