<svg width="22" height="23" viewBox="0 0 22 23" fill="none" xmlns="http://www.w3.org/2000/svg">
<path fill-rule="evenodd" clip-rule="evenodd" d="M5.06468 2.52844C4.37027 2.52844 3.67449 2.55954 2.98553 2.62309C2.62673 2.66095 2.17925 3.10307 2.14105 3.46813C2.01554 4.82426 2.01554 6.20878 2.14241 7.57437C2.17925 7.92996 2.62673 8.37344 2.99508 8.4113C4.35935 8.53569 5.75636 8.53569 7.13155 8.4113C7.50672 8.36938 7.94329 7.93537 7.98285 7.5622C8.107 6.20878 8.107 4.82426 7.98149 3.45731C7.94329 3.10442 7.49581 2.66095 7.12609 2.62174C6.44532 2.55954 5.755 2.52844 5.06468 2.52844ZM14.6734 22.3972C13.3227 22.2566 12.1195 21.0655 11.9817 19.7391C11.8411 18.2396 11.8411 16.7294 11.9803 15.2394C12.1222 13.9022 13.3241 12.711 14.6611 12.5731C16.1754 12.4325 17.6993 12.4325 19.2027 12.5718C20.5506 12.7097 21.7539 13.9008 21.8944 15.2272C22.035 16.7294 22.035 18.2396 21.8958 19.7296C21.7539 21.0682 20.5506 22.2593 19.2136 22.3959C18.451 22.4662 17.6952 22.5 16.938 22.5C16.1809 22.5 15.4251 22.4662 14.6734 22.3972ZM5.06195 10.5327C4.30478 10.5327 3.54761 10.4989 2.7959 10.4286C1.44664 10.2907 0.244716 9.09815 0.105561 7.77177C-0.0349588 6.27232 -0.0349587 4.76071 0.104197 3.27073C0.243352 1.93488 1.44527 0.743711 2.78362 0.604447C4.29796 0.465184 5.82321 0.465184 7.32664 0.604447C8.6759 0.743711 9.87782 1.93488 10.0183 3.25991C10.1575 4.76071 10.1575 6.27232 10.0197 7.76095C9.87782 9.0995 8.67453 10.2907 7.33755 10.4286H7.32664C6.57492 10.4989 5.81912 10.5327 5.06195 10.5327ZM16.938 10.5327C16.1809 10.5327 15.4251 10.4989 14.6734 10.4286C13.3227 10.2907 12.1208 9.09815 11.9817 7.77177C11.8411 6.27232 11.8411 4.76071 11.9803 3.27073C12.1222 1.93488 13.3241 0.743711 14.6611 0.604447C16.1754 0.465184 17.6993 0.465184 19.2027 0.604447C20.552 0.743711 21.7539 1.93488 21.8944 3.25991C22.035 4.76071 22.035 6.27232 21.8958 7.7623C21.7539 9.0995 20.5506 10.2907 19.2136 10.4286H19.2027C18.451 10.4989 17.6952 10.5327 16.938 10.5327ZM5.06195 22.5C4.30478 22.5 3.54898 22.4662 2.7959 22.3972C1.44527 22.258 0.243352 21.0655 0.105561 19.7391C-0.0349588 18.2396 -0.0349587 16.7294 0.104197 15.2394C0.243352 13.9035 1.44527 12.711 2.78362 12.5731C4.29796 12.4325 5.82321 12.4325 7.32664 12.5718C8.6759 12.711 9.87782 13.9008 10.0183 15.2272C10.1575 16.7294 10.1575 18.2396 10.0197 19.7296C9.87782 21.0682 8.67453 22.2593 7.33755 22.3959C7.33346 22.3959 7.33073 22.3972 7.32664 22.3972C6.57492 22.4662 5.81912 22.5 5.06195 22.5ZM16.9408 2.52844C16.2477 2.52844 15.552 2.55954 14.863 2.62309C14.4974 2.66095 14.0567 3.09631 14.0171 3.47084C13.8916 4.82426 13.8916 6.20878 14.0185 7.57437C14.0554 7.92996 14.5042 8.37344 14.8725 8.4113C16.2368 8.53569 17.6325 8.53569 19.0076 8.4113C19.3828 8.36938 19.8194 7.93537 19.8589 7.5622C19.9845 6.20878 19.9845 4.82426 19.8576 3.45867C19.8194 3.09631 19.3787 2.66095 19.0022 2.62174C18.3214 2.55954 17.6325 2.52844 16.9408 2.52844ZM16.9408 14.4957C16.2477 14.4957 15.552 14.5268 14.863 14.5904C14.4974 14.6296 14.0567 15.065 14.0171 15.4381C13.8916 16.7916 13.8916 18.1774 14.0185 19.5417C14.0554 19.8973 14.5042 20.3407 14.8739 20.3786C16.2382 20.5043 17.6325 20.5043 19.0076 20.3786C19.3828 20.3367 19.8194 19.9027 19.8589 19.5309C19.9845 18.1774 19.9845 16.7916 19.8576 15.426C19.8194 15.065 19.3787 14.6283 19.0036 14.5904C18.3214 14.5268 17.6325 14.4957 16.9408 14.4957ZM5.06468 14.4957C4.37027 14.4957 3.67449 14.5268 2.98553 14.5904C2.62673 14.6283 2.17925 15.0717 2.14105 15.4368C2.01554 16.7916 2.01554 18.1774 2.14241 19.5417C2.17925 19.8973 2.62673 20.3407 2.99645 20.3786C4.35935 20.5043 5.75773 20.5043 7.13155 20.3786C7.50672 20.3367 7.94329 19.9027 7.98285 19.5309C8.107 18.1774 8.107 16.7916 7.98149 15.426C7.94329 15.0717 7.49581 14.6283 7.12745 14.5904C6.44532 14.5268 5.755 14.4957 5.06468 14.4957Z" fill="#F3F3F3"/>
</svg>
