<svg width="22" height="23" viewBox="0 0 22 23" fill="none" xmlns="http://www.w3.org/2000/svg">
<path d="M0.358997 22.1409C-0.126577 21.6692 -0.112704 20.8644 0.358997 20.3926L9.23806 11.4983L0.358997 2.6178C-0.112704 2.14603 -0.112704 1.35511 0.358997 0.86946C0.830697 0.369933 1.64924 0.383809 2.12094 0.86946L11 9.74992L19.8791 0.86946C20.3508 0.383809 21.1554 0.383809 21.641 0.86946C22.1266 1.34123 22.1127 2.14603 21.641 2.6178L12.7619 11.4983L21.641 20.3926C22.1127 20.8644 22.1127 21.6553 21.641 22.1409C21.1693 22.6266 20.3508 22.6127 19.8791 22.1409L11 13.2605L2.12094 22.1409C1.64924 22.6127 0.84457 22.6127 0.358997 22.1409Z" fill="#3498DB"/>
</svg>
