<svg width="24" height="24" viewBox="0 0 24 24" fill="none" xmlns="http://www.w3.org/2000/svg">
<path d="M2.70112 24C1.6521 24 1 23.192 1 21.9587V2.02717C1 0.793857 1.6521 0 2.70112 0C3.26816 0 3.75015 0.21264 4.31719 0.538689L20.8464 10.1075C22.023 10.788 22.4341 11.2416 22.4341 11.9929C22.4341 12.7442 22.023 13.1979 20.8464 13.8925L4.31719 23.4471C3.75015 23.7732 3.26816 24 2.70112 24ZM3.4241 21.2924C3.4808 21.2924 3.53751 21.264 3.59421 21.2357L19.2871 12.1488C19.3579 12.1205 19.4146 12.0638 19.4146 11.9929C19.4146 11.922 19.3579 11.8795 19.2871 11.837L3.59421 2.76432C3.53751 2.7218 3.4808 2.69344 3.4241 2.69344C3.33904 2.69344 3.28234 2.75015 3.28234 2.86356V21.1223C3.28234 21.2357 3.33904 21.2924 3.4241 21.2924Z" fill="#F3F3F3"/>
</svg>
