<svg width="24" height="24" viewBox="0 0 24 24" fill="none" xmlns="http://www.w3.org/2000/svg">
<path d="M12 24C5.44706 24 0 18.5529 0 12C0 5.4353 5.4353 0 11.9882 0C18.553 0 24 5.4353 24 12C24 18.5529 18.5647 24 12 24ZM12 22C17.5529 22 22 17.553 22 12C22 6.44707 17.5412 2.00001 11.9882 2.00001C6.43531 2.00001 2.01177 6.44707 2.01177 12C2.01177 17.553 6.44705 22 12 22ZM11.8941 7.92941C11.047 7.92941 10.3647 7.24706 10.3647 6.38822C10.3647 5.52939 11.047 4.84707 11.8941 4.84707C12.753 4.84707 13.4235 5.52939 13.4235 6.38822C13.4235 7.24706 12.753 7.92941 11.8941 7.92941ZM9.94119 18.5882C9.45882 18.5882 9.08235 18.2353 9.08235 17.7529C9.08235 17.2941 9.45882 16.9294 9.94119 16.9294H11.4V11.5412H10.1412C9.6588 11.5412 9.28233 11.1883 9.28233 10.7059C9.28233 10.2471 9.6588 9.88236 10.1412 9.88236H12.353C12.953 9.88236 13.2706 10.3059 13.2706 10.9412V16.9294H14.7294C15.2118 16.9294 15.5883 17.2941 15.5883 17.7529C15.5883 18.2353 15.2118 18.5882 14.7294 18.5882H9.94119Z" fill="#F3F3F3"/>
</svg>
