<svg width="24" height="24" viewBox="0 0 24 24" fill="none" xmlns="http://www.w3.org/2000/svg">
<path d="M22.4772 1.53579C23.8048 2.86334 24 4.7115 24 6.9371V17.0499C24 19.2755 23.8048 21.1367 22.4772 22.4642C21.1497 23.7918 19.2755 24 17.0499 24H6.93708C4.72451 24 2.85032 23.7918 1.52277 22.4642C0.195229 21.1367 0 19.2755 0 17.0499V6.91105C0 4.72451 0.195229 2.86334 1.52277 1.53579C2.85032 0.20824 4.72451 0 6.91109 0H17.0499C19.2755 0 21.1497 0.20824 22.4772 1.53579ZM21.9046 6.58566C21.9046 5.24512 21.7354 3.8525 20.9414 3.07158C20.1605 2.27765 18.7549 2.09545 17.4143 2.09545H6.62474C5.25813 2.09545 3.83948 2.27765 3.04555 3.05857C2.26464 3.8525 2.09544 5.24512 2.09544 6.62471V17.4143C2.09544 18.7549 2.26464 20.1475 3.04555 20.9284C3.83948 21.7224 5.24512 21.9045 6.58569 21.9045H17.4143C18.7549 21.9045 20.1605 21.7224 20.9414 20.9284C21.7354 20.1475 21.9046 18.7549 21.9046 17.4143V6.58566ZM5.97397 12C5.97397 11.3493 6.4165 10.8937 7.09327 10.8937H10.9197V7.06725C10.9197 6.40347 11.3492 5.94794 11.987 5.94794C12.6377 5.94794 13.0933 6.40347 13.0933 7.06725V10.8937H16.9327C17.5835 10.8937 18.0391 11.3493 18.0391 12C18.0391 12.6378 17.5835 13.0672 16.9327 13.0672H13.0933V16.9067C13.0933 17.5705 12.6377 18.013 11.987 18.013C11.3492 18.013 10.9197 17.5575 10.9197 16.9067V13.0672H7.09327C6.4295 13.0672 5.97397 12.6378 5.97397 12Z" fill="#F3F3F3"/>
</svg>
